<svg xmlns="http://www.w3.org/2000/svg" viewBox="0 0 512 512">
  <defs>
    <linearGradient id="bg" x1="0%" y1="0%" x2="100%" y2="100%">
      <stop offset="0%" style="stop-color:#0f172a"/>
      <stop offset="100%" style="stop-color:#1e293b"/>
    </linearGradient>
    <linearGradient id="eco" x1="0%" y1="0%" x2="100%" y2="100%">
      <stop offset="0%" style="stop-color:#10b981"/>
      <stop offset="100%" style="stop-color:#06b6d4"/>
    </linearGradient>
  </defs>
  <!-- Background -->
  <rect width="512" height="512" rx="96" fill="url(#bg)"/>
  <!-- Recycle symbol -->
  <g transform="translate(256, 256)" fill="none" stroke="url(#eco)" stroke-width="28" stroke-linecap="round" stroke-linejoin="round">
    <!-- Arrow 1 -->
    <path d="M-80,-100 L0,-100 L40,-40" />
    <polygon points="50,-60 70,-20 30,-20" fill="url(#eco)" stroke="none"/>
    <!-- Arrow 2 -->
    <path d="M80,20 L40,100 L-40,100" />
    <polygon points="-50,80 -70,120 -30,120" fill="url(#eco)" stroke="none" transform="rotate(180, -50, 100)"/>
    <!-- Arrow 3 -->
    <path d="M-40,60 L-80,-20 L-40,-80" />
    <polygon points="-30,-90 -50,-130 -10,-130" fill="url(#eco)" stroke="none" transform="rotate(60, -40, -100)"/>
  </g>
  <!-- Leaf accent -->
  <ellipse cx="256" cy="256" rx="30" ry="50" fill="#10b981" opacity="0.8" transform="rotate(-45, 256, 256)"/>
  <!-- Scan lines effect -->
  <rect x="100" y="420" width="312" height="4" rx="2" fill="#06b6d4" opacity="0.6"/>
  <rect x="140" y="435" width="232" height="3" rx="1.5" fill="#06b6d4" opacity="0.4"/>
</svg>

